<?xml version="1.0" encoding="UTF-8"?>
<svg xmlns="http://www.w3.org/2000/svg" xmlns:xlink="http://www.w3.org/1999/xlink" width="512px" height="512px" viewBox="0 0 512 512" version="1.1">
<g id="surface1">
<path style=" stroke:none;fill-rule:nonzero;fill:rgb(0%,0%,0%);fill-opacity:1;" d="M 149.332031 341.332031 C 155.378906 341.332031 160.445312 339.289062 164.535156 335.199219 C 168.621094 331.109375 170.667969 326.042969 170.667969 320 C 170.667969 313.957031 168.621094 308.890625 164.535156 304.800781 C 160.445312 300.710938 155.378906 298.667969 149.332031 298.667969 C 143.289062 298.667969 138.222656 300.710938 134.132812 304.800781 C 130.042969 308.890625 128 313.957031 128 320 C 128 326.042969 130.042969 331.109375 134.132812 335.199219 C 138.222656 339.289062 143.289062 341.332031 149.332031 341.332031 Z M 128 277.332031 L 170.667969 277.332031 L 170.667969 170.667969 L 128 170.667969 Z M 213.332031 320 L 384 320 L 384 277.332031 L 213.332031 277.332031 Z M 213.332031 234.667969 L 384 234.667969 L 384 192 L 213.332031 192 Z M 85.332031 426.667969 C 73.601562 426.667969 63.554688 422.488281 55.199219 414.132812 C 46.84375 405.777344 42.667969 395.734375 42.667969 384 L 42.667969 128 C 42.667969 116.265625 46.84375 106.222656 55.199219 97.867188 C 63.554688 89.511719 73.601562 85.332031 85.332031 85.332031 L 426.667969 85.332031 C 438.398438 85.332031 448.445312 89.511719 456.800781 97.867188 C 465.15625 106.222656 469.332031 116.265625 469.332031 128 L 469.332031 384 C 469.332031 395.734375 465.15625 405.777344 456.800781 414.132812 C 448.445312 422.488281 438.398438 426.667969 426.667969 426.667969 Z M 85.332031 384 L 426.667969 384 L 426.667969 128 L 85.332031 128 Z M 85.332031 384 L 85.332031 128 Z M 85.332031 384 "/>
</g>
</svg>
